<svg width="124" height="128" viewBox="0 0 124 128" fill="none" xmlns="http://www.w3.org/2000/svg">
<path fill-rule="evenodd" clip-rule="evenodd" d="M123.036 39.2436C65.022 -3.74179 37.309 30.2014 35 33.5C28 43.5 26.9999 64.5 26.9999 64.5C34.0219 32.6672 96.7067 27.1318 123.135 88.5187C113.514 111.698 90.6606 128 64 128C28.6538 128 0 99.3462 0 64C0 28.6538 28.6538 0 64 0C90.5694 0 113.357 16.1904 123.036 39.2436ZM61.7928 80.1066C38.6111 80.0826 35.5 60.7914 35.5 55.5C33 58 27.625 67.5 28.5 77C29.4466 80.7864 38.0096 99.3576 57.1578 101.33L54.5 113.5L98.5 83L64 70L61.7928 80.1066Z" fill="#FF502F"/>
</svg>
