<svg t="1631004287162" class="icon" viewBox="0 0 1024 1024" version="1.1" xmlns="http://www.w3.org/2000/svg" p-id="8004" width="64" height="64"><path d="M170.666667 917.333333v-42.666666a21.333333 21.333333 0 0 1 21.333333-21.333334h640a21.333333 21.333333 0 0 1 21.333333 21.333334v42.666666a21.333333 21.333333 0 0 1-21.333333 21.333334h-640a21.333333 21.333333 0 0 1-21.333333-21.333334z m21.333333-149.333333h640a21.333333 21.333333 0 0 0 21.333333-21.333333v-85.333334a21.333333 21.333333 0 0 0-21.333333-21.333333h-640a21.333333 21.333333 0 0 0-21.333333 21.333333v85.333334a21.333333 21.333333 0 0 0 21.333333 21.333333z m0-213.333333h640a21.333333 21.333333 0 0 0 21.333333-21.333334v-128a21.333333 21.333333 0 0 0-21.333333-21.333333h-640a21.333333 21.333333 0 0 0-21.333333 21.333333v128a21.333333 21.333333 0 0 0 21.333333 21.333334z m0-256h640a21.333333 21.333333 0 0 0 21.333333-21.333334v-170.666666a21.333333 21.333333 0 0 0-21.333333-21.333334h-640a21.333333 21.333333 0 0 0-21.333333 21.333334v170.666666a21.333333 21.333333 0 0 0 21.333333 21.333334z" p-id="8005"></path></svg>
